<?xml version="1.0" encoding="utf-8"?>
<!-- Svg Vector Icons : http://www.onlinewebfonts.com/icon -->
<!DOCTYPE svg PUBLIC "-//W3C//DTD SVG 1.1//EN" "http://www.w3.org/Graphics/SVG/1.1/DTD/svg11.dtd">
<svg version="1.1" xmlns="http://www.w3.org/2000/svg" xmlns:xlink="http://www.w3.org/1999/xlink" x="0px" y="0px" viewBox="0 0 256 256" enable-background="new 0 0 256 256" xml:space="preserve">
<metadata> Svg Vector Icons : http://www.onlinewebfonts.com/icon </metadata>
<g><g><g><path fill="#000000" d="M32,54.5c-4.8,1-10.5,2.9-17.9,6l-2.8,1.2l1.2,2.3c0.6,1.3,1.6,2.1,2,1.9c7.2-3.2,14.7-5.8,18.9-6.5c11.2-1.9,20.2,0.2,40.3,9c11.2,4.9,18.4,6.4,28.2,5.9c8.7-0.4,13.8-2,28.3-8.4c20.8-9.3,31.3-9.5,50.3-1.1c16.2,7.2,22.7,9.1,31.7,9.5c8.7,0.5,14.7-0.6,23.3-4c8.7-3.3,10.2-4.3,10.2-6.3c0-2.8-1.9-2.7-8.9,0.3c-9.9,4.2-14.6,5.2-24.2,4.8c-9.3-0.4-12.6-1.3-25.5-7.2c-16.1-7.2-25.7-9.3-36.5-7.9c-7.5,1.1-12,2.6-25.3,8.4c-13.5,5.9-18.1,7-28.7,6.5c-9.3-0.4-12.2-1.3-28.3-8.3C63.3,58.5,57,56,54.5,55.4C47.9,53.7,38.2,53.3,32,54.5z"/><path fill="#000000" d="M31.3,97.1c-8.1,1.7-20.9,7.2-21.2,9c-0.1,0.6,0.1,1.6,0.5,2.2c0.8,1.3,1.4,1.1,12.9-3.4c6.4-2.5,8.1-2.9,15.8-3.2c10.5-0.4,15.6,0.8,28.6,6.7c25.1,11.3,36.2,11.5,59.4,1.3c13.2-5.9,18.2-7.5,24.5-8.1c11.1-1,17.9,0.6,35.8,8.4c14.4,6.4,23,8.1,33.3,6.6c5.9-0.8,13.7-3.2,20.2-6.1l3.5-1.6l-1.1-2.2c-0.7-1.3-1.3-2.3-1.4-2.3c-0.1,0-2.5,1.1-5.3,2.3c-2.8,1.3-8,3-11.6,3.8c-12.4,3-21.4,1.3-43.1-8.3c-10.3-4.5-16.7-6.1-25.6-6.1c-8.6,0-15.7,1.9-29.2,7.8c-13.6,6-17.6,7.2-25.7,7.8c-8.5,0.5-15.2-1-26.3-5.9c-4.8-2.1-12.1-5-16.3-6.5c-6.7-2.4-8.4-2.7-16.2-2.9C38.2,96.5,32.9,96.8,31.3,97.1z"/><path fill="#000000" d="M32,139.6c-4.8,1-10.5,2.9-17.9,6l-2.8,1.2l1.2,2.3c0.6,1.3,1.6,2.1,2,1.9c7.2-3.2,14.7-5.8,18.9-6.5c11.2-1.9,20.2,0.2,40.4,9c11.4,5,17.6,6.3,27.8,5.9c9.3-0.5,14.3-1.9,27.1-7.7c11.9-5.3,17.8-7.2,25.6-7.7c8.5-0.5,15.2,1,26.3,5.9c4.8,2.1,12.1,5,16.3,6.5c14.4,5,28.4,4.1,44.1-3.2c3.4-1.6,3.4-1.7,2.4-4l-0.9-2.3l-5.9,2.5c-8.5,3.7-13.8,4.9-22.1,4.9c-8.8,0-14.6-1.5-26.3-6.8c-17.2-7.8-26.6-9.9-37.6-8.3c-7.8,1.1-12.6,2.8-25.3,8.4c-12.2,5.4-17.4,6.8-26.3,6.8c-9.6,0-14-1.3-33.2-9.7c-3.8-1.7-8.9-3.5-11.4-4.1C47.9,138.8,38.2,138.4,32,139.6z"/><path fill="#000000" d="M29.8,182.6c-4.7,1.2-12.4,4.1-16.9,6.2c-2,1-2.6,1.8-2.6,3.2c0,2.8,1.9,2.7,8.9-0.3c8.9-3.8,14.1-5,22.4-5c8.8,0,14.6,1.5,26.3,6.8c17.2,7.8,26.6,9.9,37.5,8.3c7.5-1.1,13.4-3.1,26-8.7c12.8-5.6,17.5-6.7,28-6.2c9.3,0.4,12.2,1.3,28.3,8.3c15.2,6.7,24.5,8.4,35.7,6.3c8.2-1.5,21.9-7,22.6-9c0.8-2.6-1.6-3.8-4.9-2.3c-13.2,5.8-20.4,7.5-29.4,6.8c-7.1-0.5-13.2-2.4-25.9-8c-14.8-6.5-17.3-7.1-28.7-7.2c-11.4,0-15.1,0.9-29.7,7.5c-12,5.3-17.9,7.2-25.7,7.7c-8.5,0.5-15.2-1-26.3-5.9c-4.8-2.1-12.1-5-16.3-6.5c-6.7-2.4-8.5-2.7-16.2-2.9C37.1,181.5,32.8,181.8,29.8,182.6z"/></g></g></g>
</svg>